<svg id="Capa_1" enable-background="new 0 0 512 512" height="512" viewBox="0 0 512 512" width="512" xmlns="http://www.w3.org/2000/svg"><g><path d="m454.194 363.355h-396.388c-16.175 0-30.798 6.644-41.29 17.352l-8.176 40.454v24.221c0 31.926 25.881 57.806 57.806 57.806h388.047l40.455-7.704c10.708-10.491 17.352-25.115 17.352-41.29v-33.032c0-31.926-25.881-57.807-57.806-57.807z" fill="#75d3eb"/><path d="m57.806 495.484c-22.804 0-41.29-18.486-41.29-41.29v-73.487c-10.205 10.424-16.516 24.713-16.516 40.454v33.032c0 31.926 25.881 57.807 57.806 57.807h396.387c15.74 0 30.029-6.31 40.454-16.516z" fill="#50bfeb"/><path d="m454.194 181.677h-396.388c-16.175 0-30.798 6.644-41.29 17.352l-8.176 40.455v24.221c0 31.926 25.881 57.806 57.806 57.806h388.047l40.455-7.704c10.708-10.491 17.352-25.115 17.352-41.291v-33.032c0-31.926-25.881-57.807-57.806-57.807z" fill="#b4e77a"/><path d="m57.806 313.806c-22.804 0-41.29-18.486-41.29-41.29v-73.487c-10.205 10.425-16.516 24.714-16.516 40.455v33.032c0 31.925 25.881 57.806 57.806 57.806h396.387c15.74 0 30.029-6.31 40.454-16.516z" fill="#94d77b"/><path d="m454.194 0h-396.388c-16.175 0-30.798 6.644-41.29 17.352l-8.176 40.454v24.221c0 31.926 25.881 57.806 57.806 57.806h388.047l40.455-7.704c10.708-10.491 17.352-25.115 17.352-41.29v-33.033c0-31.925-25.881-57.806-57.806-57.806z" fill="#ffdc78"/><g fill="#fff"><path d="m305.548 66.065h-132.129c-4.565 0-8.258-3.698-8.258-8.258s3.694-8.258 8.258-8.258h132.129c4.565 0 8.258 3.698 8.258 8.258s-3.693 8.258-8.258 8.258z"/><path d="m445.936 99.097h-272.517c-4.565 0-8.258-3.698-8.258-8.258s3.694-8.258 8.258-8.258h272.516c4.565 0 8.258 3.698 8.258 8.258.001 4.56-3.693 8.258-8.257 8.258z"/><path d="m305.548 247.742h-132.129c-4.565 0-8.258-3.698-8.258-8.258s3.694-8.258 8.258-8.258h132.129c4.565 0 8.258 3.698 8.258 8.258s-3.693 8.258-8.258 8.258z"/><path d="m445.936 280.774h-272.517c-4.565 0-8.258-3.698-8.258-8.258s3.694-8.258 8.258-8.258h272.516c4.565 0 8.258 3.698 8.258 8.258.001 4.561-3.693 8.258-8.257 8.258z"/><path d="m305.548 429.419h-132.129c-4.565 0-8.258-3.698-8.258-8.258s3.694-8.258 8.258-8.258h132.129c4.565 0 8.258 3.698 8.258 8.258s-3.693 8.258-8.258 8.258z"/><path d="m445.936 462.452h-272.517c-4.565 0-8.258-3.698-8.258-8.258s3.694-8.258 8.258-8.258h272.516c4.565 0 8.258 3.698 8.258 8.258s-3.693 8.258-8.257 8.258z"/><path d="m82.581 247.742c-9.122 0-16.516-7.395-16.516-16.516 0-9.122 7.395-16.516 16.516-16.516 9.122 0 16.516 7.395 16.516 16.516 0 9.121-7.395 16.516-16.516 16.516z"/><path d="m121.452 464.871-25.939-25.935c2.212-4.084 3.584-8.685 3.584-13.646 0-15.935-12.968-28.903-28.903-28.903s-28.904 12.968-28.904 28.903 12.968 28.903 28.903 28.903c4.959 0 9.558-1.371 13.641-3.581l25.94 25.936c1.613 1.613 3.726 2.419 5.839 2.419s4.226-.806 5.839-2.419c3.225-3.225 3.225-8.455 0-11.677zm-63.646-39.581c0-6.831 5.556-12.387 12.387-12.387s12.387 5.556 12.387 12.387-5.556 12.387-12.387 12.387-12.387-5.556-12.387-12.387z"/></g><path d="m57.806 132.129c-22.804 0-41.29-18.486-41.29-41.29v-73.487c-10.205 10.424-16.516 24.714-16.516 40.454v33.032c0 31.925 25.881 57.806 57.806 57.806h396.387c15.74 0 30.029-6.31 40.454-16.516h-436.841z" fill="#ffcc5c"/><g><g><path d="m50.284 46.932 26.459 26.391c3.227 3.219 8.452 3.217 11.677-.004l26.417-26.388c2.083-2.08.609-5.64-2.334-5.64h-59.887c-2.945-.001-4.417 3.562-2.332 5.641z" fill="#fff"/></g><path d="m82.581 92.242c-6.347 0-12.685-2.415-17.516-7.238l-18.84-18.842c-1.821-1.821-4.934-.531-4.934 2.044v30.891c0 4.561 3.697 8.258 8.258 8.258h66.065c4.561 0 8.258-3.697 8.258-8.258v-30.893c0-2.575-3.113-3.865-4.934-2.044l-18.841 18.84c-4.831 4.827-11.178 7.242-17.516 7.242z" fill="#fff"/></g><path d="m49.548 282.194c0-.332.08-.649.089-.98-.009-.154-.089-.284-.089-.44z" fill="#fff"/><path d="m109.915 262.309c-2.498-3.664-7.353-4.58-11.199-2.374-4.762 2.731-10.247 4.323-16.136 4.323-5.777 0-11.161-1.536-15.858-4.174-3.653-2.052-8.393-1.485-10.784 1.957-3.819 5.497-6.104 12.144-6.302 19.173.241 4.345 3.764 7.819 8.169 7.819h49.463c4.725 0 8.399-3.94 8.341-8.665-.08-6.702-2.176-12.9-5.694-18.059z" fill="#fff"/></g></svg>