<svg id="Capa_1" enable-background="new 0 0 512 512" height="512" viewBox="0 0 512 512" width="512" xmlns="http://www.w3.org/2000/svg"><g><g><path d="m482 186h-20v-100c0-11.046-8.954-20-20-20h-246v-20c0-11.046-8.954-20-20-20h-106c-11.046 0-20 8.954-20 20v140h-20c-11.046 0-20 8.954-20 20 0 1.909.268 3.756.767 5.505l40 140c2.391 8.369 10.097 14.495 19.233 14.495h372c9.136 0 16.842-6.126 19.233-14.495l40-140c.5-1.749.767-3.596.767-5.505 0-11.046-8.954-20-20-20z" fill="#fcc"/><path d="m110 126h292v60h-292z" fill="#fff"/><path d="m256 486 60-60h-30v-160h-60v160h-30z" fill="#ff99ad"/></g><g><g fill="#ff6684"><path d="m176 236h-86c-5.523 0-10 4.477-10 10s4.477 10 10 10h86c5.523 0 10-4.477 10-10s-4.477-10-10-10z"/><path d="m482 176h-10v-90c0-16.542-13.458-30-30-30h-236v-10c0-16.542-13.458-30-30-30h-106c-16.542 0-30 13.458-30 30v130h-10c-16.542 0-30 13.458-30 30 0 2.8.388 5.576 1.152 8.252l40 140c3.659 12.805 15.521 21.748 28.848 21.748h146v40h-20c-4.044 0-7.691 2.437-9.239 6.173s-.692 8.038 2.167 10.898l60 60c1.953 1.953 4.512 2.929 7.071 2.929s5.119-.976 7.071-2.929l60-60c2.86-2.86 3.715-7.162 2.167-10.898-1.546-3.736-5.193-6.173-9.237-6.173h-20v-40h146c13.327 0 25.189-8.943 28.848-21.748l40-140.001c.764-2.675 1.152-5.451 1.152-8.251 0-16.542-13.458-30-30-30zm-422-130c0-5.514 4.486-10 10-10h106c5.514 0 10 4.486 10 10v20c0 5.523 4.477 10 10 10h246c5.514 0 10 4.486 10 10v90h-40v-50c0-5.523-4.477-10-10-10h-292c-5.523 0-10 4.477-10 10v50h-40zm60 130v-40h272v40zm136 295.858-35.858-35.858h5.858c5.523 0 10-4.477 10-10v-150h40v150c0 5.523 4.477 10 10 10h5.858zm235.618-263.1-40 140c-1.219 4.264-5.174 7.242-9.618 7.242h-146v-90c0-5.523-4.477-10-10-10h-60c-5.523 0-10 4.477-10 10v90h-146c-4.444 0-8.399-2.978-9.618-7.242l-40-139.999c-.253-.889-.382-1.817-.382-2.759 0-5.514 4.486-10 10-10h452c5.514 0 10 4.486 10 10 0 .942-.129 1.87-.382 2.758z"/></g></g></g></svg>