<svg id="Capa_1" enable-background="new 0 0 512 512" height="512" viewBox="0 0 512 512" width="512" xmlns="http://www.w3.org/2000/svg"><g><path d="m28.533 483.458 28.541 28.542 91.492-91.492-28.541-56.826z" fill="#39f"/><path d="m91.492 363.434-91.492 91.492 28.533 28.532 105.634-105.634z" fill="#6cf"/><path d="m168.525 315.182-48.5 76.784 28.541 28.542 48.5-48.5z" fill="#2e6be6"/><path d="m182.667 329.324-42.675-14.39-48.5 48.5 28.533 28.532z" fill="#39f"/><path d="m452.582 59.418c-.001-.001-.003-.003-.005-.004l-157.454 129.17-129.439 157.723c.001.001.003.003.004.004 79.223 79.224 207.67 79.223 286.894 0s79.224-207.67 0-286.893z" fill="#39f"/><path d="m165.689 59.418c-79.222 79.222-79.224 207.665-.004 286.889l286.893-286.894c-79.224-79.219-207.667-79.217-286.889.005z" fill="#6cf"/><path d="m431.36 80.631-136.237 107.953-108.221 136.505c67.397 67.397 177.061 67.397 244.458 0s67.397-177.061 0-244.458z" fill="#283366"/><path d="m186.902 80.631c-67.398 67.398-67.398 177.061 0 244.458l244.458-244.458c-67.398-67.397-177.061-67.397-244.458 0z" fill="#404a80"/><path d="m410.147 101.844-115.024 86.74-87.008 115.292c55.7 55.7 146.331 55.7 202.032 0 55.7-55.7 55.7-146.331 0-202.032z" fill="#ece6f2"/><path d="m208.115 101.844c-55.701 55.701-55.7 146.331 0 202.032l202.032-202.032c-55.701-55.7-146.332-55.7-202.032 0z" fill="#fff5f5"/><path d="m385.705 279.434c42.223-42.223 42.223-110.925 0-153.148l-90.583 62.298 14.143 122.516c27.687-.034 55.363-10.588 76.44-31.666z" fill="#f37"/><path d="m309.265 202.727-52.496 24.212-24.212 52.496c21.146 21.146 48.932 31.7 76.708 31.666z" fill="#fc6"/><path d="m385.705 126.286c-42.179-42.179-110.779-42.221-153.013-.132l24.144 52.428 52.428 24.144z" fill="#ff6c6c"/><path d="m232.692 126.154c-.045.045-.091.087-.135.132-42.223 42.223-42.223 110.925 0 153.149l76.708-76.708z" fill="#ffe666"/></g></svg>