<?xml version="1.0" encoding="utf-8"?>
<!-- Generator: Adobe Illustrator 25.2.1, SVG Export Plug-In . SVG Version: 6.00 Build 0)  -->
<svg version="1.1" id="Capa_1" xmlns="http://www.w3.org/2000/svg" xmlns:xlink="http://www.w3.org/1999/xlink" x="0px" y="0px"
	 viewBox="0 0 300 301" style="enable-background:new 0 0 300 301;" xml:space="preserve">
<style type="text/css">
	.st0{fill:#FBBC05;}
</style>
<path class="st0" d="M15,301c3.8,0,7.7-1.5,10.6-4.4l81.1-81.1C127,231.5,152.4,241,180,241c66.2,0,120-54.8,120-121S246.2,0,180,0
	S60,53.8,60,120c0,27.8,9.5,53.7,25.5,74.3L4.4,275.4c-5.9,5.9-5.9,15.4,0,21.2C7.3,299.5,11.2,301,15,301L15,301z M180,30
	c49.6,0,90,40.4,90,90s-40.4,91-90,91s-90-41.4-90-91S130.4,30,180,30z"/>
</svg>
