<svg id="Capa_1" enable-background="new 0 0 512 512" height="512" viewBox="0 0 512 512" width="512" xmlns="http://www.w3.org/2000/svg"><g><g><path d="m162.963 369.142h163.701v87.293h-163.701z" fill="#524798"/><path d="m421.865 388.352h-354.102c-37.425 0-67.763-30.338-67.763-67.762v-228.625c0-37.425 30.338-67.763 67.763-67.763h354.102c37.424 0 67.763 30.338 67.763 67.763v228.625c0 37.424-30.339 67.762-67.763 67.762z" fill="#5e54ac"/><path d="m89.934 388.361h-22.17c-37.427 0-67.764-30.348-67.764-67.764v-228.63c0-37.427 30.337-67.764 67.764-67.764h22.17c-37.427 0-67.764 30.337-67.764 67.764v228.63c0 37.416 30.337 67.764 67.764 67.764z" fill="#524798"/><path d="m451.957 91.961v228.627c0 16.594-13.504 30.089-30.089 30.089h-22.8-291.482-39.819c-16.594 0-30.089-13.495-30.089-30.089v-228.627c0-16.585 13.495-30.089 30.089-30.089h354.101c16.585 0 30.089 13.505 30.089 30.089z" fill="#f1f4f6"/><path d="m96.306 350.678h-28.543c-16.585 0-30.089-13.495-30.089-30.089v-228.626c0-16.585 13.504-30.089 30.089-30.089h28.544c-16.585 0-30.089 13.504-30.089 30.089v228.627c0 16.593 13.504 30.088 30.088 30.088z" fill="#f9f6f9"/><path d="m347.974 487.792h-206.321c-15.005 0-27.169-12.164-27.169-27.169 0-15.005 12.164-27.169 27.169-27.169h206.321c15.005 0 27.169 12.164 27.169 27.169.001 15.005-12.163 27.169-27.169 27.169z" fill="#5e54ac"/><path d="m208.606 487.798h-66.959c-15.007 0-27.163-12.169-27.163-27.175 0-7.51 3.039-14.291 7.949-19.214 4.923-4.923 11.717-7.962 19.214-7.962h66.959c-7.497 0-14.304 3.039-19.214 7.962-4.923 4.923-7.962 11.704-7.962 19.214 0 15.007 12.169 27.175 27.176 27.175z" fill="#524798"/></g><g><path d="m504.225 443.842c-10.367 10.367-27.175 10.367-37.542 0l-74.771-74.771 37.542-37.542 74.771 74.771c10.367 10.367 10.367 27.175 0 37.542z" fill="#dd5790"/><path d="m510.379 434.188c-1.274 3.532-3.329 6.832-6.151 9.654-10.37 10.37-27.174 10.37-37.545 0l-74.771-74.771 15.812-15.813 74.771 74.771c7.541 7.541 18.49 9.604 27.884 6.159z" fill="#da387d"/><circle cx="357.748" cy="297.363" fill="#ffe07d" r="104.143"/><path d="m368.476 400.957c-3.521.368-7.103.553-10.726.553-57.518 0-104.146-46.628-104.146-104.146 0-57.507 46.628-104.136 104.146-104.136 3.623 0 7.205.184 10.726.553-52.482 5.363-93.43 49.699-93.43 103.583-.001 53.894 40.948 98.23 93.43 103.593z" fill="#ffd064"/><circle cx="357.748" cy="297.363" fill="#9dc6fb" r="68.66"/><path d="m377.608 363.107c-6.294 1.895-12.957 2.916-19.862 2.916-37.924 0-68.659-30.735-68.659-68.659 0-37.913 30.735-68.659 68.659-68.659 6.905 0 13.567 1.021 19.862 2.916-28.24 8.515-48.807 34.735-48.807 65.743-.001 31.018 20.567 57.227 48.807 65.743z" fill="#80b4fb"/><path d="m453.121 339.959-52.779 52.779c-7.134 7.134-7.134 18.7 0 25.834 7.134 7.134 18.7 7.134 25.834 0l52.779-52.779c7.134-7.134 7.134-18.7 0-25.834-7.134-7.134-18.701-7.134-25.834 0z" fill="#dd5790"/><path d="m439.971 397.209c4.675 0 9.35-1.78 12.918-5.348l-26.711 26.711c-3.568 3.568-8.243 5.348-12.918 5.348s-9.35-1.78-12.918-5.348c-7.135-7.136-7.135-18.7 0-25.836l26.711-26.711c-7.135 7.135-7.135 18.7 0 25.836 3.568 3.567 8.243 5.348 12.918 5.348z" fill="#da387d"/></g><g><path d="m192.661 255.936h-9.622v-47.046-16.332c0-8.281-6.713-14.994-14.994-14.994h-52.912c-8.651 0-15.663 7.013-15.663 15.663 0 8.651 7.013 15.663 15.663 15.663h13.553v47.046h-13.553c-8.651 0-15.663 7.013-15.663 15.663 0 8.651 7.013 15.663 15.663 15.663h77.529c8.651 0 15.663-7.013 15.663-15.663 0-8.651-7.013-15.663-15.664-15.663z" fill="#9dc6fb"/><path d="m146.53 208.887v47.039h-13.557c-8.652 0-15.662 7.021-15.662 15.673 0 4.315 1.758 8.231 4.589 11.073 2.831 2.831 6.747 4.589 11.073 4.589h-17.841c-4.326 0-8.242-1.758-11.073-4.589-2.842-2.842-4.589-6.757-4.589-11.073 0-8.652 7.01-15.673 15.662-15.673h13.557v-47.039h-13.557c-4.326 0-8.242-1.747-11.073-4.589-2.842-2.831-4.589-6.747-4.589-11.073 0-8.652 7.01-15.662 15.662-15.662h17.841c-8.652 0-15.662 7.01-15.662 15.662 0 4.326 1.758 8.242 4.589 11.073 2.831 2.842 6.747 4.589 11.073 4.589z" fill="#80b4fb"/><circle cx="155.862" cy="126.37" fill="#9dc6fb" r="27.177"/><path d="m165.178 151.906c-2.905 1.063-6.042 1.642-9.315 1.642-15.01 0-27.177-12.168-27.177-27.177 0-15.01 12.168-27.177 27.177-27.177 3.273 0 6.41.579 9.315 1.642-10.42 3.8-17.862 13.799-17.862 25.535s7.442 21.735 17.862 25.535z" fill="#80b4fb"/></g></g></svg>